<svg width="577" height="92" viewBox="0 0 577 92" fill="none" xmlns="http://www.w3.org/2000/svg">
<line x1="40.9178" y1="27.3804" x2="90.9178" y2="27.3804" stroke="white" stroke-width="2"/>
<path d="M153.894 15.1044H143.59L135.974 50.8804H122.15L129.766 15.1044H119.59L120.742 10.2404H154.982L153.894 15.1044ZM175.597 9.60043C179.266 9.60043 182.231 10.0698 184.493 11.0084C186.797 11.9471 188.61 13.3978 189.933 15.3604C190.786 16.6831 191.447 18.1764 191.917 19.8404C192.386 21.5044 192.621 23.4244 192.621 25.6004C192.621 27.4778 192.45 29.3551 192.109 31.2324C191.767 33.1098 191.277 34.9231 190.637 36.6724C190.039 38.3791 189.293 40.0004 188.397 41.5364C187.543 43.0298 186.583 44.3524 185.517 45.5044C183.511 47.6804 181.186 49.2164 178.541 50.1124C175.938 50.9658 172.717 51.3924 168.877 51.3924C165.165 51.3924 162.178 51.0084 159.917 50.2404C157.655 49.4724 155.863 48.2351 154.541 46.5284C153.602 45.3338 152.855 43.8191 152.301 41.9844C151.789 40.1498 151.533 37.8458 151.533 35.0724C151.533 30.3364 152.365 26.1124 154.029 22.4004C155.735 18.6458 158.146 15.6804 161.261 13.5044C163.138 12.1818 165.229 11.2004 167.533 10.5604C169.837 9.92043 172.525 9.60043 175.597 9.60043ZM168.365 46.9124C169.346 46.9124 170.263 46.4858 171.117 45.6324C172.013 44.7364 172.823 43.5631 173.549 42.1124C174.317 40.6191 174.999 38.9338 175.597 37.0564C176.237 35.1791 176.77 33.2378 177.197 31.2324C177.623 29.2271 177.943 27.2431 178.157 25.2804C178.413 23.2751 178.541 21.4618 178.541 19.8404C178.541 17.6218 178.306 16.1071 177.837 15.2964C177.41 14.4431 176.77 14.0164 175.917 14.0164C174.935 14.0164 173.997 14.4431 173.101 15.2964C172.205 16.1498 171.351 17.3018 170.541 18.7524C169.773 20.1604 169.069 21.8031 168.429 23.6804C167.831 25.5151 167.298 27.4138 166.829 29.3764C166.402 31.3391 166.061 33.2804 165.805 35.2004C165.591 37.1204 165.485 38.8911 165.485 40.5124C165.485 42.9444 165.741 44.6298 166.253 45.5684C166.807 46.4644 167.511 46.9124 168.365 46.9124ZM196.305 34.4964H216.465L215.185 40.3204H194.961L196.305 34.4964ZM219.668 50.8804L228.308 10.2404H245.524C248.169 10.2404 250.473 10.5178 252.436 11.0724C254.441 11.5844 256.084 12.4591 257.364 13.6964C258.686 14.9338 259.668 16.5551 260.308 18.5604C260.99 20.5658 261.332 23.0191 261.332 25.9204C261.332 29.0351 260.926 32.0858 260.116 35.0724C259.348 38.0591 258.046 40.7258 256.212 43.0724C254.377 45.4191 251.966 47.3178 248.98 48.7684C246.036 50.1764 242.388 50.8804 238.036 50.8804H219.668ZM237.204 46.4004C238.612 46.4004 239.849 45.8244 240.916 44.6724C242.025 43.4778 242.964 41.9844 243.732 40.1924C244.542 38.3578 245.204 36.3524 245.716 34.1764C246.27 31.9578 246.697 29.8244 246.996 27.7764C247.337 25.7284 247.572 23.8938 247.7 22.2724C247.87 20.6511 247.956 19.4991 247.956 18.8164C247.956 17.4938 247.678 16.4698 247.124 15.7444C246.612 14.9764 245.694 14.5924 244.372 14.5924H241.3L234.452 46.4004H237.204ZM288.347 9.60043C292.016 9.60043 294.981 10.0698 297.243 11.0084C299.547 11.9471 301.36 13.3978 302.683 15.3604C303.536 16.6831 304.197 18.1764 304.667 19.8404C305.136 21.5044 305.371 23.4244 305.371 25.6004C305.371 27.4778 305.2 29.3551 304.859 31.2324C304.517 33.1098 304.027 34.9231 303.387 36.6724C302.789 38.3791 302.043 40.0004 301.147 41.5364C300.293 43.0298 299.333 44.3524 298.267 45.5044C296.261 47.6804 293.936 49.2164 291.291 50.1124C288.688 50.9658 285.467 51.3924 281.627 51.3924C277.915 51.3924 274.928 51.0084 272.667 50.2404C270.405 49.4724 268.613 48.2351 267.291 46.5284C266.352 45.3338 265.605 43.8191 265.051 41.9844C264.539 40.1498 264.283 37.8458 264.283 35.0724C264.283 30.3364 265.115 26.1124 266.779 22.4004C268.485 18.6458 270.896 15.6804 274.011 13.5044C275.888 12.1818 277.979 11.2004 280.283 10.5604C282.587 9.92043 285.275 9.60043 288.347 9.60043ZM281.115 46.9124C282.096 46.9124 283.013 46.4858 283.867 45.6324C284.763 44.7364 285.573 43.5631 286.299 42.1124C287.067 40.6191 287.749 38.9338 288.347 37.0564C288.987 35.1791 289.52 33.2378 289.947 31.2324C290.373 29.2271 290.693 27.2431 290.907 25.2804C291.163 23.2751 291.291 21.4618 291.291 19.8404C291.291 17.6218 291.056 16.1071 290.587 15.2964C290.16 14.4431 289.52 14.0164 288.667 14.0164C287.685 14.0164 286.747 14.4431 285.851 15.2964C284.955 16.1498 284.101 17.3018 283.291 18.7524C282.523 20.1604 281.819 21.8031 281.179 23.6804C280.581 25.5151 280.048 27.4138 279.579 29.3764C279.152 31.3391 278.811 33.2804 278.555 35.2004C278.341 37.1204 278.235 38.8911 278.235 40.5124C278.235 42.9444 278.491 44.6298 279.003 45.5684C279.557 46.4644 280.261 46.9124 281.115 46.9124ZM352.217 50.8804H337.241L330.137 21.5044L323.865 50.8804H318.105L326.745 10.2404H342.041L348.761 40.0004L355.097 10.2404H360.985L352.217 50.8804ZM385.597 9.60043C389.266 9.60043 392.231 10.0698 394.493 11.0084C396.797 11.9471 398.61 13.3978 399.933 15.3604C400.786 16.6831 401.447 18.1764 401.917 19.8404C402.386 21.5044 402.621 23.4244 402.621 25.6004C402.621 27.4778 402.45 29.3551 402.109 31.2324C401.767 33.1098 401.277 34.9231 400.637 36.6724C400.039 38.3791 399.293 40.0004 398.397 41.5364C397.543 43.0298 396.583 44.3524 395.517 45.5044C393.511 47.6804 391.186 49.2164 388.541 50.1124C385.938 50.9658 382.717 51.3924 378.877 51.3924C375.165 51.3924 372.178 51.0084 369.917 50.2404C367.655 49.4724 365.863 48.2351 364.541 46.5284C363.602 45.3338 362.855 43.8191 362.301 41.9844C361.789 40.1498 361.533 37.8458 361.533 35.0724C361.533 30.3364 362.365 26.1124 364.029 22.4004C365.735 18.6458 368.146 15.6804 371.261 13.5044C373.138 12.1818 375.229 11.2004 377.533 10.5604C379.837 9.92043 382.525 9.60043 385.597 9.60043ZM378.365 46.9124C379.346 46.9124 380.263 46.4858 381.117 45.6324C382.013 44.7364 382.823 43.5631 383.549 42.1124C384.317 40.6191 384.999 38.9338 385.597 37.0564C386.237 35.1791 386.77 33.2378 387.197 31.2324C387.623 29.2271 387.943 27.2431 388.157 25.2804C388.413 23.2751 388.541 21.4618 388.541 19.8404C388.541 17.6218 388.306 16.1071 387.837 15.2964C387.41 14.4431 386.77 14.0164 385.917 14.0164C384.935 14.0164 383.997 14.4431 383.101 15.2964C382.205 16.1498 381.351 17.3018 380.541 18.7524C379.773 20.1604 379.069 21.8031 378.429 23.6804C377.831 25.5151 377.298 27.4138 376.829 29.3764C376.402 31.3391 376.061 33.2804 375.805 35.2004C375.591 37.1204 375.485 38.8911 375.485 40.5124C375.485 42.9444 375.741 44.6298 376.253 45.5684C376.807 46.4644 377.511 46.9124 378.365 46.9124ZM406.722 10.2404H422.338L423.426 37.9524L434.114 10.2404H446.786L448.45 37.9524L459.202 10.2404H465.922L450.114 50.8804H435.714L434.37 27.9044L424.77 50.8804H409.41L406.722 10.2404Z" fill="white"/>
<line x1="486.918" y1="27.3804" x2="536.918" y2="27.3804" stroke="white" stroke-width="2"/>
<line x1="0.513519" y1="78.9855" x2="240.514" y2="78.9855" stroke="white" stroke-width="2"/>
<path d="M288.514 83.9855H284.514V79.9855L296.514 67.9855L300.514 71.9855L288.514 83.9855Z" stroke="white" stroke-width="2" stroke-linecap="round" stroke-linejoin="round"/>
<path d="M293.514 70.9855L297.514 74.9855" stroke="white" stroke-width="2" stroke-linecap="round" stroke-linejoin="round"/>
<path d="M299.514 78.9855V89.9855C299.514 90.2507 299.408 90.5051 299.221 90.6926C299.033 90.8801 298.779 90.9855 298.514 90.9855H278.514C278.248 90.9855 277.994 90.8801 277.806 90.6926C277.619 90.5051 277.514 90.2507 277.514 89.9855V69.9855C277.514 69.7203 277.619 69.4659 277.806 69.2784C277.994 69.0909 278.248 68.9855 278.514 68.9855H289.514" stroke="white" stroke-width="2" stroke-linecap="round" stroke-linejoin="round"/>
<line x1="336.514" y1="78.9855" x2="576.514" y2="78.9855" stroke="white" stroke-width="2"/>
</svg>
